<svg xmlns="http://www.w3.org/2000/svg" viewBox="0 0 200 200" width="100%" height="100%">
  <!-- Metallic background circle -->
  <defs>
    <radialGradient id="metalGradient" cx="50%" cy="50%" r="50%" fx="50%" fy="50%">
      <stop offset="0%" style="stop-color:#717D8C" />
      <stop offset="75%" style="stop-color:#3A4452" />
      <stop offset="100%" style="stop-color:#232A35" />
    </radialGradient>
    
    <!-- Red glow for the eye -->
    <radialGradient id="redGlow" cx="50%" cy="50%" r="50%" fx="50%" fy="50%">
      <stop offset="0%" style="stop-color:#FF3300" />
      <stop offset="70%" style="stop-color:#CC0000" />
      <stop offset="100%" style="stop-color:#990000" />
    </radialGradient>
    
    <!-- Metallic filter -->
    <filter id="metallic" x="-20%" y="-20%" width="140%" height="140%">
      <feGaussianBlur in="SourceAlpha" stdDeviation="2" result="blur" />
      <feSpecularLighting in="blur" surfaceScale="5" specularConstant="0.75" specularExponent="20" lighting-color="#CCCCCC" result="specOut">
        <fePointLight x="150" y="60" z="20" />
      </feSpecularLighting>
      <feComposite in="specOut" in2="SourceAlpha" operator="in" result="specOut" />
      <feComposite in="SourceGraphic" in2="specOut" operator="arithmetic" k1="0" k2="1" k3="1" k4="0" result="litPaint" />
    </filter>
  </defs>
  
  <!-- Main circle with metallic texture -->
  <circle cx="100" cy="100" r="85" fill="url(#metalGradient)" filter="url(#metallic)" />
  
  <!-- Mechanical details -->
  <path d="M40,100 A60,60 0 0,1 160,100" stroke="#555555" stroke-width="2" fill="none" />
  <path d="M45,80 A55,55 0 0,1 155,80" stroke="#555555" stroke-width="2" fill="none" />
  <path d="M45,120 A55,55 0 0,1 155,120" stroke="#555555" stroke-width="2" fill="none" />
  
  <!-- Metallic ring -->
  <circle cx="100" cy="100" r="65" fill="none" stroke="#888888" stroke-width="3" />
  
  <!-- Inner circle -->
  <circle cx="100" cy="100" r="50" fill="#232A35" stroke="#444444" stroke-width="1" />
  
  <!-- Terminator eye -->
  <circle cx="100" cy="100" r="20" fill="url(#redGlow)">
    <animate attributeName="opacity" values="0.8;1;0.8" dur="2s" repeatCount="indefinite" />
  </circle>
  
  <!-- Glowing effect -->
  <circle cx="100" cy="100" r="18" fill="#FF6666" opacity="0.7">
    <animate attributeName="r" values="18;20;18" dur="2s" repeatCount="indefinite" />
  </circle>
  
  <!-- Metallic details -->
  <circle cx="100" cy="40" r="8" fill="#444444" stroke="#555555" stroke-width="1" />
  <circle cx="160" cy="100" r="8" fill="#444444" stroke="#555555" stroke-width="1" />
  <circle cx="100" cy="160" r="8" fill="#444444" stroke="#555555" stroke-width="1" />
  <circle cx="40" cy="100" r="8" fill="#444444" stroke="#555555" stroke-width="1" />
  
  <!-- Screws/bolts -->
  <circle cx="70" cy="70" r="3" fill="#888888" />
  <circle cx="130" cy="70" r="3" fill="#888888" />
  <circle cx="70" cy="130" r="3" fill="#888888" />
  <circle cx="130" cy="130" r="3" fill="#888888" />
</svg>